<svg width="25" height="25" viewBox="0 0 25 25" fill="none" xmlns="http://www.w3.org/2000/svg">
<g clip-path="url(#clip0_487_15)">
<path d="M25 12.5C25 13.076 24.5333 13.5417 23.9583 13.5417H22.9167V14.5833C22.9167 15.1594 22.45 15.625 21.875 15.625C21.3 15.625 20.8333 15.1594 20.8333 14.5833V13.5417H19.7917C19.2167 13.5417 18.75 13.076 18.75 12.5C18.75 11.924 19.2167 11.4583 19.7917 11.4583H20.8333V10.4167C20.8333 9.84062 21.3 9.375 21.875 9.375C22.45 9.375 22.9167 9.84062 22.9167 10.4167V11.4583H23.9583C24.5333 11.4583 25 11.924 25 12.5ZM11.6396 12.1781C11.1281 11.6031 10.8073 10.8542 10.8073 10.026C10.8073 8.23125 12.2677 6.77083 14.0625 6.77083C15.8573 6.77083 17.3177 8.23125 17.3177 10.026C17.3177 10.8542 16.9969 11.6031 16.4854 12.1781C17.1552 12.8187 17.5781 13.7156 17.5781 14.7135C17.5781 16.6521 16.001 18.2292 14.0625 18.2292C12.124 18.2292 10.5469 16.6521 10.5469 14.7135C10.5469 13.7156 10.9687 12.8187 11.6396 12.1781ZM15.4948 14.7135C15.4948 13.924 14.8521 13.2812 14.0625 13.2812C13.2729 13.2812 12.6302 13.924 12.6302 14.7135C12.6302 15.5031 13.2729 16.1458 14.0625 16.1458C14.8521 16.1458 15.4948 15.5031 15.4948 14.7135ZM14.0625 11.1979C14.7083 11.1979 15.2344 10.6719 15.2344 10.026C15.2344 9.38021 14.7083 8.85417 14.0625 8.85417C13.4167 8.85417 12.8906 9.38021 12.8906 10.026C12.8906 10.6719 13.4167 11.1979 14.0625 11.1979ZM22.0583 18.0437C21.3812 17.5094 20.399 17.625 19.8635 18.3021C18.0719 20.5729 15.3885 21.875 12.5 21.875C7.33125 21.875 3.125 17.6698 3.125 12.5C3.125 7.33021 7.33125 3.125 12.5 3.125C15.3875 3.125 18.0719 4.42708 19.8635 6.69792C20.399 7.375 21.3823 7.49062 22.0583 6.95625C22.7354 6.42083 22.8521 5.43854 22.3177 4.76146C19.9292 1.73542 16.351 0 12.5 0C5.60729 0 0 5.60729 0 12.5C0 19.3927 5.60729 25 12.5 25C16.351 25 19.9292 23.2646 22.3167 20.2396C22.851 19.5625 22.7354 18.5792 22.0573 18.0448L22.0583 18.0437ZM8.33333 17.7083C8.90833 17.7083 9.375 17.2427 9.375 16.6667V8.65312C9.375 8.08854 9.03542 7.59167 8.50937 7.38646C7.98542 7.18021 7.39792 7.31562 7.01042 7.73437L5.20625 9.71458C4.81875 10.1406 4.85 10.799 5.275 11.1865C5.7 11.574 6.35937 11.5417 6.74687 11.1187L7.29167 10.5208V16.6667C7.29167 17.2427 7.75833 17.7083 8.33333 17.7083Z" fill="#008000"/>
</g>
<defs>
<clipPath id="clip0_487_15">
<rect width="25" height="25" fill="white"/>
</clipPath>
</defs>
</svg>
