<svg width="26" height="26" viewBox="0 0 26 26" fill="none" xmlns="http://www.w3.org/2000/svg">
<g clip-path="url(#clip0_353_210)">
<path d="M9.0242 5.3625L13.8505 4.82625L14.3867 0L17.5121 3.12542L20.6375 0L21.1738 4.82625L26 5.3625L23.2018 8.16075C22.4619 7.78808 21.6309 7.58333 20.7643 7.58333H13.9035C13.13 7.58333 12.3858 7.74692 11.7087 8.04592L9.02528 5.3625H9.0242ZM7.0677 12.8884L2.82862 13.7876L2.37903 11.6675C2.22628 10.9492 2.15587 10.2234 2.16778 9.49758L4.04953 9.09892L4.27378 10.1584C4.38212 10.6687 4.8317 11.0175 5.33328 11.0175C5.40803 11.0175 5.48278 11.0099 5.55862 10.9947C6.14362 10.8702 6.51737 10.2949 6.39387 9.70992L6.16962 8.65042L8.71003 8.112L6.88245 6.28442L2.4527 7.22367L2.97053 4.47308C3.05178 4.04192 3.38112 3.705 3.81012 3.614C3.81012 3.614 10.7586 2.158 10.8334 2.158C11.1844 2.158 11.518 2.32917 11.7239 2.62708L11.8885 2.86542L12.1702 0.32825C11.5332 0.0173333 10.7987 -0.0823333 10.0718 0.0725833L3.35945 1.49392C2.07137 1.76692 1.08228 2.77875 0.839618 4.07225L0.204785 7.44358C-0.0877154 8.99925 -0.0692988 10.5712 0.258951 12.1182L1.15703 16.3572L3.27712 15.9077L3.72562 18.0267L6.65495 17.407C6.82503 16.2695 7.13595 15.158 7.58337 14.0844L8.1792 12.6544L7.0677 12.8906V12.8884ZM25.0835 14.9164C25.6924 16.3757 26 17.9172 26 19.4989V23.8322H23.8334V25.9989H19.5V23.8322H15.1667V25.9989H10.8334V23.8322H8.6667V19.4989C8.6667 17.9162 8.97545 16.3746 9.5832 14.9164L10.9027 11.7498C11.4086 10.5343 12.5862 9.75 13.9025 9.75H20.7632C22.0795 9.75 23.257 10.5354 23.764 11.7509L25.0835 14.9175V14.9164ZM11.8268 15.1656H22.841L21.7642 12.5829C21.5952 12.1777 21.2019 11.9156 20.7643 11.9156H13.9035C13.4648 11.9156 13.0715 12.1777 12.9036 12.5818L11.8268 15.1656ZM23.8334 19.4989C23.8334 18.7633 23.7521 18.0397 23.5907 17.3322H21.6667V18.4156C21.6667 19.0147 21.1814 19.4989 20.5834 19.4989C19.9854 19.4989 19.5 19.0147 19.5 18.4156V17.3322H15.1667V18.4156C15.1667 19.0147 14.6814 19.4989 14.0834 19.4989C13.4854 19.4989 13 19.0147 13 18.4156V17.3322H11.076C10.9146 18.0397 10.8334 18.7633 10.8334 19.4989V21.6656H23.8334V19.4989Z" fill="#1E1E1E"/>
</g>
<defs>
<clipPath id="clip0_353_210">
<rect width="26" height="26" fill="white"/>
</clipPath>
</defs>
</svg>
