<svg width="25" height="25" viewBox="0 0 25 25" fill="none" xmlns="http://www.w3.org/2000/svg">
<g clip-path="url(#clip0_48_264)">
<path d="M12.5 0C10.0277 0 7.61099 0.733112 5.55538 2.10663C3.49976 3.48015 1.89761 5.43238 0.951511 7.71646C0.00541608 10.0005 -0.242126 12.5139 0.24019 14.9386C0.722505 17.3634 1.91301 19.5907 3.66117 21.3388C5.40933 23.087 7.63661 24.2775 10.0614 24.7598C12.4861 25.2421 14.9995 24.9946 17.2835 24.0485C19.5676 23.1024 21.5199 21.5002 22.8934 19.4446C24.2669 17.389 25 14.9723 25 12.5C24.9964 9.18589 23.6783 6.00855 21.3349 3.66512C18.9915 1.3217 15.8141 0.00358446 12.5 0ZM12.5 21.875C10.6458 21.875 8.83325 21.3252 7.29153 20.295C5.74982 19.2649 4.54821 17.8007 3.83863 16.0877C3.12906 14.3746 2.94341 12.4896 3.30514 10.671C3.66688 8.85246 4.55976 7.18199 5.87088 5.87087C7.182 4.55976 8.85246 3.66687 10.671 3.30514C12.4896 2.9434 14.3746 3.12906 16.0877 3.83863C17.8007 4.5482 19.2649 5.74982 20.295 7.29153C21.3252 8.83324 21.875 10.6458 21.875 12.5C21.8722 14.9856 20.8836 17.3685 19.1261 19.1261C17.3685 20.8836 14.9856 21.8722 12.5 21.875Z" fill="#1E1E1E"/>
<path d="M10.9375 11.5155L8.43745 13.078C8.26348 13.1869 8.11267 13.329 7.99365 13.4963C7.87462 13.6635 7.78971 13.8525 7.74376 14.0526C7.69781 14.2526 7.69172 14.4598 7.72585 14.6622C7.75998 14.8646 7.83365 15.0582 7.94266 15.2322C8.05158 15.4061 8.19371 15.5569 8.36093 15.676C8.52815 15.795 8.71719 15.8799 8.91723 15.9259C9.11728 15.9718 9.32442 15.9779 9.52682 15.9438C9.72922 15.9096 9.92291 15.836 10.0968 15.727L13.0854 13.852C13.3852 13.6641 13.6323 13.4029 13.8032 13.0931C13.9742 12.7832 14.0634 12.435 14.0625 12.0811V8.0957C14.0625 7.6813 13.8978 7.28387 13.6048 6.99085C13.3118 6.69782 12.9144 6.5332 12.5 6.5332C12.0856 6.5332 11.6881 6.69782 11.3951 6.99085C11.1021 7.28387 10.9375 7.6813 10.9375 8.0957V11.5155Z" fill="#1E1E1E"/>
</g>
<defs>
<clipPath id="clip0_48_264">
<rect width="25" height="25" fill="white"/>
</clipPath>
</defs>
</svg>
