<svg width="22" height="24" viewBox="0 0 22 24" fill="none" xmlns="http://www.w3.org/2000/svg">
<path d="M12.8333 12C12.8333 13.019 12.551 13.964 12.0707 14.754L9.16667 11.586V7.101C11.2585 7.564 12.8333 9.581 12.8333 12ZM7.33333 7.101C5.2415 7.564 3.66667 9.581 3.66667 12C3.66667 14.761 5.71908 17 8.25 17C9.18408 17 10.0503 16.692 10.7745 16.168L7.33333 12.414V7.101ZM14.6667 9H18.3333V7H14.6667V9ZM14.6667 13H18.3333V11H14.6667V13ZM14.6667 17H18.3333V15H14.6667V17ZM22 6V21H0V6C0 4.346 1.23383 3 2.75 3H19.25C20.7662 3 22 4.346 22 6ZM20.1667 6C20.1667 5.449 19.756 5 19.25 5H2.75C2.244 5 1.83333 5.449 1.83333 6V19H20.1667V6Z" fill="#808080"/>
</svg>
