<svg width="22" height="22" viewBox="0 0 22 22" fill="none" xmlns="http://www.w3.org/2000/svg">
<g clip-path="url(#clip0_483_10)">
<path d="M22 11C22 11.5069 21.5893 11.9167 21.0833 11.9167H20.1667V12.8333C20.1667 13.3403 19.756 13.75 19.25 13.75C18.744 13.75 18.3333 13.3403 18.3333 12.8333V11.9167H17.4167C16.9107 11.9167 16.5 11.5069 16.5 11C16.5 10.4931 16.9107 10.0833 17.4167 10.0833H18.3333V9.16667C18.3333 8.65975 18.744 8.25 19.25 8.25C19.756 8.25 20.1667 8.65975 20.1667 9.16667V10.0833H21.0833C21.5893 10.0833 22 10.4931 22 11ZM10.2428 10.7168C9.79275 10.2108 9.51042 9.55167 9.51042 8.82292C9.51042 7.2435 10.7956 5.95833 12.375 5.95833C13.9544 5.95833 15.2396 7.2435 15.2396 8.82292C15.2396 9.55167 14.9573 10.2108 14.5072 10.7168C15.0966 11.2805 15.4688 12.0698 15.4688 12.9479C15.4688 14.6538 14.0809 16.0417 12.375 16.0417C10.6691 16.0417 9.28125 14.6538 9.28125 12.9479C9.28125 12.0698 9.6525 11.2805 10.2428 10.7168ZM13.6354 12.9479C13.6354 12.2531 13.0698 11.6875 12.375 11.6875C11.6802 11.6875 11.1146 12.2531 11.1146 12.9479C11.1146 13.6428 11.6802 14.2083 12.375 14.2083C13.0698 14.2083 13.6354 13.6428 13.6354 12.9479ZM12.375 9.85417C12.9433 9.85417 13.4063 9.39125 13.4063 8.82292C13.4063 8.25458 12.9433 7.79167 12.375 7.79167C11.8067 7.79167 11.3438 8.25458 11.3438 8.82292C11.3438 9.39125 11.8067 9.85417 12.375 9.85417ZM19.4113 15.8785C18.8155 15.4083 17.9511 15.51 17.4799 16.1058C15.9033 18.1042 13.5419 19.25 11 19.25C6.4515 19.25 2.75 15.5494 2.75 11C2.75 6.45058 6.4515 2.75 11 2.75C13.541 2.75 15.9033 3.89583 17.4799 5.89417C17.9511 6.49 18.8164 6.59175 19.4113 6.1215C20.0072 5.65033 20.1098 4.78592 19.6396 4.19008C17.5377 1.52717 14.3889 0 11 0C4.93442 0 0 4.93442 0 11C0 17.0656 4.93442 22 11 22C14.3889 22 17.5377 20.4728 19.6387 17.8108C20.1089 17.215 20.0072 16.3497 19.4104 15.8794L19.4113 15.8785ZM7.33333 15.5833C7.83933 15.5833 8.25 15.1736 8.25 14.6667V7.61475C8.25 7.11792 7.95117 6.68067 7.48825 6.50008C7.02717 6.31858 6.51017 6.43775 6.16917 6.80625L4.5815 8.54883C4.2405 8.92375 4.268 9.50308 4.642 9.84408C5.016 10.1851 5.59625 10.1567 5.93725 9.7845L6.41667 9.25833V14.6667C6.41667 15.1736 6.82733 15.5833 7.33333 15.5833Z" fill="#1E1E1E"/>
</g>
<defs>
<clipPath id="clip0_483_10">
<rect width="22" height="22" fill="white"/>
</clipPath>
</defs>
</svg>
