<svg width="25" height="25" viewBox="0 0 25 25" fill="none" xmlns="http://www.w3.org/2000/svg">
<g clip-path="url(#clip0_48_367)">
<path d="M23.7116 10.6582L18.5553 5.50195L17.0834 6.97904L21.5626 11.4582H6.89282V13.5415H21.5626L17.0834 18.0207L18.5564 19.4936L23.7126 14.3374C23.9545 14.0955 24.1464 13.8084 24.2773 13.4924C24.4082 13.1764 24.4756 12.8377 24.4756 12.4957C24.4756 12.1537 24.4082 11.815 24.2773 11.499C24.1464 11.183 23.9545 10.8959 23.7126 10.654L23.7116 10.6582Z" fill="#808080"/>
<path d="M10.9125 21.875C10.9125 22.1513 10.8028 22.4162 10.6074 22.6116C10.4121 22.8069 10.1471 22.9167 9.87083 22.9167H3.125C2.84873 22.9167 2.58378 22.8069 2.38843 22.6116C2.19308 22.4162 2.08333 22.1513 2.08333 21.875V3.125C2.08333 2.84873 2.19308 2.58378 2.38843 2.38843C2.58378 2.19308 2.84873 2.08333 3.125 2.08333H9.87083C10.1471 2.08333 10.4121 2.19308 10.6074 2.38843C10.8028 2.58378 10.9125 2.84873 10.9125 3.125V8.68021H12.9958V3.125C12.9958 2.2962 12.6666 1.50134 12.0805 0.915291C11.4945 0.32924 10.6996 0 9.87083 0L3.125 0C2.2962 0 1.50134 0.32924 0.915291 0.915291C0.32924 1.50134 0 2.2962 0 3.125L0 21.875C0 22.7038 0.32924 23.4987 0.915291 24.0847C1.50134 24.6708 2.2962 25 3.125 25H9.87083C10.6996 25 11.4945 24.6708 12.0805 24.0847C12.6666 23.4987 12.9958 22.7038 12.9958 21.875V16.3198H10.9125V21.875Z" fill="#808080"/>
</g>
<defs>
<clipPath id="clip0_48_367">
<rect width="25" height="25" fill="white"/>
</clipPath>
</defs>
</svg>
