<svg width="22" height="23" viewBox="0 0 22 23" fill="none" xmlns="http://www.w3.org/2000/svg">
<path d="M12.8334 6.4107C12.8334 6.7733 12.7258 7.12775 12.5244 7.42924C12.3229 7.73073 12.0366 7.96572 11.7016 8.10448C11.3666 8.24324 10.998 8.27954 10.6424 8.20881C10.2867 8.13807 9.96007 7.96346 9.70368 7.70706C9.44728 7.45066 9.27267 7.124 9.20193 6.76836C9.13119 6.41273 9.1675 6.04411 9.30626 5.70911C9.44502 5.37411 9.68 5.08779 9.98149 4.88634C10.283 4.68489 10.6374 4.57736 11 4.57736C11.4863 4.57736 11.9526 4.77052 12.2964 5.11434C12.6402 5.45815 12.8334 5.92447 12.8334 6.4107ZM15.5375 10.9546L11 15.394L6.46987 10.961C5.57079 10.0648 4.95777 8.92193 4.70839 7.67716C4.45901 6.43238 4.58447 5.1416 5.06889 3.96815C5.55332 2.7947 6.37495 1.79132 7.4298 1.08496C8.48466 0.378608 9.72533 0.0010288 10.9948 2.09938e-06C12.2644 -0.0010246 13.5056 0.374548 14.5616 1.0792C15.6176 1.78384 16.4409 2.7859 16.9272 3.95856C17.4135 5.13123 17.5411 6.4218 17.2937 7.66698C17.0463 8.91215 16.4352 10.0569 15.5375 10.9546ZM14.6667 6.4107C14.6667 5.6855 14.4517 4.97659 14.0488 4.37361C13.6459 3.77063 13.0732 3.30066 12.4032 3.02314C11.7332 2.74562 10.996 2.67301 10.2847 2.81449C9.57344 2.95596 8.9201 3.30518 8.40731 3.81797C7.89452 4.33077 7.5453 4.9841 7.40382 5.69537C7.26235 6.40663 7.33496 7.14388 7.61248 7.81387C7.89 8.48387 8.35997 9.05652 8.96295 9.45942C9.56593 9.86232 10.2748 10.0774 11 10.0774C11.9725 10.0774 12.9051 9.69106 13.5928 9.00342C14.2804 8.31579 14.6667 7.38316 14.6667 6.4107ZM20.0448 9.72262L18.7294 9.28262C18.32 10.3979 17.6732 11.411 16.8337 12.2517L11 17.9607L5.18837 12.2774C4.08516 11.1782 3.316 9.78899 2.97004 8.27062C2.59213 8.23583 2.21113 8.28049 1.85151 8.40173C1.49189 8.52297 1.16162 8.7181 0.881909 8.97459C0.602199 9.23107 0.379243 9.54324 0.227367 9.89103C0.0754914 10.2388 -0.00194402 10.6145 3.70743e-05 10.994V19.9334L7.31779 22.0243L14.6695 20.1909L22.0028 21.9766V12.3534C22.0024 11.7627 21.8118 11.1877 21.4591 10.7137C21.1065 10.2397 20.6106 9.89276 20.0448 9.72262Z" fill="#FF0000"/>
</svg>
