<svg width="22" height="22" viewBox="0 0 22 22" fill="none" xmlns="http://www.w3.org/2000/svg">
<path d="M10.9999 11C7.96669 11 5.49994 8.53325 5.49994 5.5C5.49994 2.46675 7.96669 0 10.9999 0C14.0332 0 16.4999 2.46675 16.4999 5.5C16.4999 8.53325 14.0332 11 10.9999 11ZM10.9999 12.8333C6.32219 12.8333 2.40619 16.3368 1.89194 20.9825C1.86352 21.2419 1.94694 21.5004 2.12019 21.6947C2.29435 21.8891 2.54277 22 2.8031 22H5.49902C5.49902 18.9668 7.96577 16.5 10.999 16.5C14.0323 16.5 16.499 18.9668 16.499 22H19.1949C19.4553 22 19.7037 21.8891 19.8779 21.6947C20.0511 21.5004 20.1345 21.2419 20.1061 20.9825C19.5919 16.3368 15.6759 12.8333 10.9981 12.8333H10.9999ZM10.9999 18.3333C8.97777 18.3333 7.33327 19.9778 7.33327 22H14.6666C14.6666 19.9778 13.0221 18.3333 10.9999 18.3333Z" fill="#1E1E1E"/>
</svg>
