<svg width="28" height="28" viewBox="0 0 28 28" fill="none" xmlns="http://www.w3.org/2000/svg">
<path d="M23.4499 23.5457C23.118 23.5455 22.793 23.451 22.5129 23.2732C22.2327 23.0953 22.0088 22.8415 21.8675 22.5412C21.7261 22.241 21.673 21.9067 21.7144 21.5774C21.7558 21.2482 21.8899 20.9374 22.1012 20.6815C23.6423 18.7958 24.4842 16.4354 24.4842 14C24.4842 11.5647 23.6423 9.20421 22.1012 7.31853C21.8137 6.95982 21.6789 6.5024 21.726 6.04512C21.773 5.58785 21.998 5.16743 22.3525 4.87473C22.707 4.58203 23.1624 4.44055 23.6203 4.48087C24.0782 4.52119 24.5019 4.74006 24.7997 5.09019C26.8555 7.60447 27.9786 10.7523 27.9786 14C27.9786 17.2478 26.8555 20.3956 24.7997 22.9099C24.6355 23.1088 24.4293 23.2689 24.196 23.3788C23.9626 23.4888 23.7078 23.5457 23.4499 23.5457ZM5.66405 23.1444C6.02142 22.8486 6.24674 22.4231 6.29049 21.9612C6.33424 21.4994 6.19285 21.0391 5.89738 20.6815C4.35605 18.7959 3.51404 16.4354 3.51404 14C3.51404 11.5646 4.35605 9.20412 5.89738 7.31853C6.18486 6.95982 6.31965 6.5024 6.27263 6.04512C6.22561 5.58785 6.00056 5.16743 5.6461 4.87473C5.29164 4.58203 4.83625 4.44055 4.37833 4.48087C3.92041 4.52119 3.49674 4.74006 3.19888 5.09019C1.1431 7.60447 0.0200195 10.7523 0.0200195 14C0.0200195 17.2478 1.1431 20.3956 3.19888 22.9099C3.49464 23.2672 3.92019 23.4925 4.382 23.5363C4.84382 23.5801 5.30411 23.4387 5.66172 23.1432L5.66405 23.1444ZM22.1665 14C21.8165 24.7929 6.17505 24.7905 5.83322 14C6.17622 3.20719 21.8247 3.20953 22.1665 14ZM15.7499 18.0834C15.7499 17.6192 15.5655 17.1741 15.2373 16.8459C14.9091 16.5177 14.464 16.3334 13.9999 16.3334C13.5358 16.3334 13.0906 16.5177 12.7624 16.8459C12.4343 17.1741 12.2499 17.6192 12.2499 18.0834C12.2499 18.5475 12.4343 18.9926 12.7624 19.3208C13.0906 19.649 13.5358 19.8334 13.9999 19.8334C14.464 19.8334 14.9091 19.649 15.2373 19.3208C15.5655 18.9926 15.7499 18.5475 15.7499 18.0834ZM15.7499 9.91669C15.7499 9.45256 15.5655 9.00744 15.2373 8.67926C14.9091 8.35107 14.464 8.16669 13.9999 8.16669C13.5358 8.16669 13.0906 8.35107 12.7624 8.67926C12.4343 9.00744 12.2499 9.45256 12.2499 9.91669V13.4167C12.2499 13.8808 12.4343 14.3259 12.7624 14.6541C13.0906 14.9823 13.5358 15.1667 13.9999 15.1667C14.464 15.1667 14.9091 14.9823 15.2373 14.6541C15.5655 14.3259 15.7499 13.8808 15.7499 13.4167V9.91669Z" fill="#1E1E1E"/>
</svg>
