<svg width="22" height="22" viewBox="0 0 22 22" fill="none" xmlns="http://www.w3.org/2000/svg">
<g clip-path="url(#clip0_483_2)">
<path d="M12.8334 6.41656C12.8334 6.77916 12.7258 7.13361 12.5244 7.4351C12.3229 7.73659 12.0366 7.97158 11.7016 8.11034C11.3666 8.2491 10.998 8.2854 10.6424 8.21466C10.2867 8.14392 9.96007 7.96932 9.70368 7.71292C9.44728 7.45652 9.27267 7.12985 9.20193 6.77422C9.13119 6.41859 9.1675 6.04997 9.30626 5.71497C9.44502 5.37997 9.68 5.09365 9.98149 4.8922C10.283 4.69075 10.6374 4.58322 11 4.58322C11.4863 4.58322 11.9526 4.77638 12.2964 5.1202C12.6402 5.46401 12.8334 5.93033 12.8334 6.41656ZM15.5375 10.9605L11 15.3999L6.46987 10.9669C5.57079 10.0706 4.95777 8.92779 4.70839 7.68302C4.45901 6.43824 4.58447 5.14746 5.06889 3.97401C5.55332 2.80056 6.37495 1.79718 7.4298 1.09082C8.48466 0.384468 9.72533 0.00688817 10.9948 0.00586147C12.2644 0.00483478 13.5056 0.380407 14.5616 1.08505C15.6176 1.7897 16.4409 2.79176 16.9272 3.96442C17.4135 5.13709 17.5411 6.42766 17.2937 7.67284C17.0463 8.91801 16.4352 10.0627 15.5375 10.9605ZM14.6667 6.41656C14.6667 5.69136 14.4517 4.98245 14.0488 4.37947C13.6459 3.77649 13.0732 3.30652 12.4032 3.029C11.7332 2.75148 10.996 2.67887 10.2847 2.82034C9.57344 2.96182 8.9201 3.31104 8.40731 3.82383C7.89452 4.33663 7.5453 4.98996 7.40382 5.70123C7.26235 6.41249 7.33496 7.14974 7.61248 7.81973C7.89 8.48973 8.35997 9.06238 8.96295 9.46528C9.56593 9.86818 10.2748 10.0832 11 10.0832C11.9725 10.0832 12.9051 9.69692 13.5928 9.00928C14.2804 8.32165 14.6667 7.38902 14.6667 6.41656ZM20.0448 9.72847L18.7294 9.28848C18.32 10.4038 17.6732 11.4168 16.8337 12.2576L11 17.9666L5.18837 12.2832C4.08516 11.1841 3.316 9.79485 2.97004 8.27647C2.59213 8.24169 2.21113 8.28635 1.85151 8.40759C1.49189 8.52883 1.16162 8.72396 0.881909 8.98045C0.602199 9.23693 0.379243 9.5491 0.227367 9.89689C0.0754914 10.2447 -0.00194402 10.6204 3.70743e-05 10.9999V19.9392L7.31779 22.0301L14.6695 20.1968L22.0028 21.9825V12.3593C22.0024 11.7685 21.8118 11.1935 21.4591 10.7195C21.1065 10.2455 20.6106 9.89862 20.0448 9.72847Z" fill="#1E1E1E"/>
</g>
<defs>
<clipPath id="clip0_483_2">
<rect width="22" height="22" fill="white"/>
</clipPath>
</defs>
</svg>
