<svg width="22" height="22" viewBox="0 0 22 22" fill="none" xmlns="http://www.w3.org/2000/svg">
<path d="M19.25 11.3833V10.0835C19.25 7.89546 18.3808 5.79704 16.8337 4.24987C15.2865 2.70269 13.1881 1.8335 11 1.8335C8.81198 1.8335 6.71356 2.70269 5.16639 4.24987C3.61921 5.79704 2.75002 7.89546 2.75002 10.0835V11.3833C1.78527 11.8047 0.994992 12.5454 0.512017 13.4808C0.0290423 14.4162 -0.117184 15.4894 0.0979177 16.52C0.313019 17.5505 0.876334 18.4756 1.69318 19.1397C2.51002 19.8039 3.53059 20.1666 4.58335 20.1668H6.41669V11.0002H4.58335V10.0835C4.58335 8.38169 5.25939 6.74959 6.46275 5.54623C7.66611 4.34287 9.29821 3.66683 11 3.66683C12.7018 3.66683 14.3339 4.34287 15.5373 5.54623C16.7406 6.74959 17.4167 8.38169 17.4167 10.0835V11.0002H15.5834V18.3335H11.9167V20.1668H17.4167C18.4694 20.1666 19.49 19.8039 20.3069 19.1397C21.1237 18.4756 21.687 17.5505 21.9021 16.52C22.1172 15.4894 21.971 14.4162 21.488 13.4808C21.005 12.5454 20.2148 11.8047 19.25 11.3833Z" fill="#808080"/>
</svg>
