<svg width="30" height="30" viewBox="0 0 30 30" fill="none" xmlns="http://www.w3.org/2000/svg">
<g clip-path="url(#clip0_48_334)">
<path d="M30 6.875V14.375C30 15.4113 29.16 16.25 28.125 16.25C27.09 16.25 26.25 15.4113 26.25 14.375V6.875C26.25 5.1525 24.8488 3.75 23.125 3.75H6.875C5.1525 3.75 3.75 5.1525 3.75 6.875V23.125C3.75 24.8475 5.1525 26.25 6.875 26.25C7.91125 26.25 8.75 27.0888 8.75 28.125C8.75 29.1612 7.91125 30 6.875 30C3.08375 30 0 26.9163 0 23.125V6.875C0 3.08375 3.08375 0 6.875 0H23.125C26.915 0 30 3.08375 30 6.875ZM29.67 26.2325C30.1063 27.0275 30.1088 27.9625 29.685 28.7463C29.2613 29.53 28.5025 30 27.6525 30H13.5975C12.7488 30 11.9888 29.5312 11.5663 28.7463C11.1425 27.9613 11.1463 27.0263 11.5738 26.2438L18.6075 13.7262C19.0275 12.9625 19.7838 12.5 20.6263 12.5C21.4688 12.5 22.225 12.9625 22.65 13.7388L29.67 26.2325ZM22.4988 25.625C22.4988 24.59 21.6588 23.75 20.6238 23.75C19.5888 23.75 18.7488 24.59 18.7488 25.625C18.7488 26.66 19.5888 27.5 20.6238 27.5C21.6588 27.5 22.4988 26.66 22.4988 25.625ZM22.4988 18.125C22.4988 17.0888 21.6588 16.25 20.6238 16.25C19.5888 16.25 18.7488 17.0888 18.7488 18.125V20.625C18.7488 21.6612 19.5888 22.5 20.6238 22.5C21.6588 22.5 22.4988 21.6612 22.4988 20.625V18.125ZM8.125 6.25C7.09 6.25 6.25 7.09 6.25 8.125C6.25 9.16 7.09 10 8.125 10C9.16 10 10 9.16 10 8.125C10 7.09 9.16 6.25 8.125 6.25ZM16.25 8.125C16.25 7.09 15.41 6.25 14.375 6.25C13.34 6.25 12.5 7.09 12.5 8.125C12.5 9.16 13.34 10 14.375 10C15.41 10 16.25 9.16 16.25 8.125Z" fill="#1E1E1E"/>
</g>
<defs>
<clipPath id="clip0_48_334">
<rect width="30" height="30" fill="white"/>
</clipPath>
</defs>
</svg>
