<svg width="22" height="22" viewBox="0 0 22 22" fill="none" xmlns="http://www.w3.org/2000/svg">
<g clip-path="url(#clip0_48_481)">
<path d="M13.7501 22H8.25006V18.7798C7.29421 18.4416 6.40889 17.9301 5.63848 17.2709L2.84814 18.8833L0.0981445 14.1167L2.88756 12.5079C2.70433 11.511 2.70433 10.489 2.88756 9.49208L0.0981445 7.88333L2.84814 3.11667L5.63848 4.72908C6.40889 4.06993 7.29421 3.55844 8.25006 3.22025V0H13.7501V3.22025C14.7059 3.55844 15.5912 4.06993 16.3616 4.72908L19.152 3.11667L21.902 7.88333L19.1126 9.49208C19.2958 10.489 19.2958 11.511 19.1126 12.5079L21.902 14.1167L19.152 18.8833L16.3616 17.2718C15.5912 17.9307 14.7058 18.4418 13.7501 18.7798V22ZM10.0834 20.1667H11.9167V17.3919L12.6051 17.2141C13.7345 16.9215 14.7624 16.3259 15.5779 15.4917L16.0756 14.9848L18.4801 16.3735L19.3967 14.7858L16.9951 13.3989L17.1839 12.7151C17.4943 11.5903 17.4943 10.4024 17.1839 9.27758L16.9951 8.59375L19.3967 7.20683L18.4801 5.61917L16.0756 7.01158L15.5779 6.50833C14.762 5.6754 13.7341 5.0811 12.6051 4.78958L11.9167 4.60808V1.83333H10.0834V4.60808L9.39498 4.78592C8.26563 5.07847 7.2377 5.67406 6.42223 6.50833L5.92448 7.01525L3.52006 5.62283L2.60339 7.2105L5.00506 8.59742L4.81623 9.28125C4.50581 10.4061 4.50581 11.5939 4.81623 12.7188L5.00506 13.4026L2.60339 14.7895L3.52006 16.3772L5.92448 14.9884L6.42223 15.4953C7.23814 16.3283 8.26603 16.9226 9.39498 17.2141L10.0834 17.3919V20.1667ZM11.0001 14.6667C10.2749 14.6667 9.56595 14.4516 8.96297 14.0487C8.35999 13.6458 7.89002 13.0732 7.6125 12.4032C7.33498 11.7332 7.26237 10.9959 7.40385 10.2847C7.54533 9.57341 7.89454 8.92007 8.40734 8.40728C8.92013 7.89448 9.57347 7.54527 10.2847 7.40379C10.996 7.26231 11.7332 7.33492 12.4032 7.61244C13.0732 7.88996 13.6459 8.35993 14.0488 8.96291C14.4517 9.56589 14.6667 10.2748 14.6667 11C14.6667 11.9725 14.2804 12.9051 13.5928 13.5927C12.9052 14.2804 11.9725 14.6667 11.0001 14.6667ZM11.0001 9.16667C10.6375 9.16667 10.283 9.27419 9.98152 9.47564C9.68003 9.67709 9.44504 9.96342 9.30628 10.2984C9.16752 10.6334 9.13122 11.002 9.20195 11.3577C9.27269 11.7133 9.4473 12.04 9.7037 12.2964C9.9601 12.5528 10.2868 12.7274 10.6424 12.7981C10.998 12.8688 11.3666 12.8325 11.7016 12.6938C12.0366 12.555 12.323 12.32 12.5244 12.0185C12.7259 11.7171 12.8334 11.3626 12.8334 11C12.8334 10.5138 12.6402 10.0475 12.2964 9.70364C11.9526 9.35982 11.4863 9.16667 11.0001 9.16667Z" fill="#808080"/>
</g>
<defs>
<clipPath id="clip0_48_481">
<rect width="22" height="22" fill="white"/>
</clipPath>
</defs>
</svg>
