<svg width="25" height="25" viewBox="0 0 25 25" fill="none" xmlns="http://www.w3.org/2000/svg">
<path d="M11.6251 12.1801L9.79175 10.277L7.54175 12.4426L9.83341 14.8249C10.0582 15.0629 10.3282 15.2537 10.6276 15.386C10.927 15.5184 11.2499 15.5897 11.5772 15.5958H11.6157C12.2646 15.5939 12.8866 15.3364 13.347 14.8791L18.5772 9.64681L16.3667 7.43848L11.6251 12.1801Z" fill="#FF0000"/>
<path d="M12.4187 25L11.8655 24.7531C11.4655 24.5719 2.08325 20.3125 2.08325 12.5V5.75521C2.08331 5.09925 2.28979 4.45994 2.67342 3.92786C3.05706 3.39578 3.5984 2.99791 4.22075 2.79063L12.4999 0.03125L20.7801 2.79167C21.4026 2.99825 21.9442 3.39582 22.3277 3.92786C22.7113 4.4599 22.9173 5.09933 22.9166 5.75521V12.5C22.9166 21.3948 13.3989 24.6688 12.9937 24.8042L12.4187 25ZM12.4999 3.325L5.20825 5.75521V12.5C5.20825 17.3646 10.7749 20.674 12.5801 21.6177C14.3947 20.8604 19.7916 18.1333 19.7916 12.5V5.75521L12.4999 3.325Z" fill="#FF0000"/>
</svg>
