<svg width="25" height="25" viewBox="0 0 25 25" fill="none" xmlns="http://www.w3.org/2000/svg">
<g clip-path="url(#clip0_493_2)">
<path d="M25 18.4708C25.0007 17.1573 24.7748 15.8534 24.3323 14.6167L22.8292 10.4073C22.6116 9.80068 22.2121 9.27599 21.6852 8.90482C21.1584 8.53365 20.5299 8.33407 19.8854 8.33333H12.4063C11.7618 8.33407 11.1333 8.53365 10.6064 8.90482C10.0796 9.27599 9.68011 9.80068 9.4625 10.4073L7.95938 14.6177C7.51676 15.8541 7.29087 17.1576 7.29167 18.4708V22.9167H9.375V25H13.5417V22.9167H18.75V25H22.9167V22.9167H25V18.4708ZM12.4063 10.4167H19.8854C20.1004 10.4166 20.31 10.4831 20.4857 10.6069C20.6614 10.7308 20.7945 10.9059 20.8667 11.1083L22.1083 14.5833H10.1833L11.425 11.1083C11.4972 10.9059 11.6303 10.7308 11.806 10.6069C11.9816 10.4831 12.1913 10.4166 12.4063 10.4167ZM22.9167 20.8333H9.375V18.4708C9.37466 17.8652 9.43327 17.261 9.55 16.6667H11.4583V17.7083C11.4583 17.9846 11.5681 18.2496 11.7634 18.4449C11.9588 18.6403 12.2237 18.75 12.5 18.75C12.7763 18.75 13.0412 18.6403 13.2366 18.4449C13.4319 18.2496 13.5417 17.9846 13.5417 17.7083V16.6667H18.75V17.7083C18.75 17.9846 18.8598 18.2496 19.0551 18.4449C19.2505 18.6403 19.5154 18.75 19.7917 18.75C20.0679 18.75 20.3329 18.6403 20.5282 18.4449C20.7236 18.2496 20.8333 17.9846 20.8333 17.7083V16.6667H22.7417C22.8584 17.261 22.917 17.8652 22.9167 18.4708V20.8333ZM4.16667 9.375V8.33333H2.26459C2.1463 8.9275 2.0856 9.53168 2.08334 10.1375V12.5H6.25V16.6667H2.08334V14.5833H3.08388e-06C0.0625031 12.1875 -0.280205 8.53021 0.667711 6.28437L2.17084 2.07396C2.3876 1.46701 2.78673 0.941929 3.31353 0.570648C3.84034 0.199367 4.46905 4.92008e-05 5.11354 0H12.5948C13.2393 4.92008e-05 13.868 0.199367 14.3948 0.570648C14.9216 0.941929 15.3207 1.46701 15.5375 2.07396L17.0292 6.25H14.8167L13.575 2.775C13.5028 2.57273 13.3699 2.39771 13.1945 2.27389C13.019 2.15007 12.8095 2.08352 12.5948 2.08333H5.11459C4.89965 2.0833 4.68997 2.14976 4.5143 2.27359C4.33862 2.39742 4.20555 2.57256 4.13334 2.775L2.89167 6.25H12.4063C11.5987 6.25145 10.8025 6.44038 10.0803 6.8019C9.3582 7.16342 8.72986 7.68766 8.2448 8.33333H6.25V9.375C6.25 9.65127 6.14026 9.91622 5.94491 10.1116C5.74956 10.3069 5.4846 10.4167 5.20834 10.4167C4.93207 10.4167 4.66712 10.3069 4.47177 10.1116C4.27642 9.91622 4.16667 9.65127 4.16667 9.375Z" fill="#FF0000"/>
</g>
<defs>
<clipPath id="clip0_493_2">
<rect width="25" height="25" fill="white"/>
</clipPath>
</defs>
</svg>
