<svg width="24" height="24" viewBox="0 0 24 24" fill="none" xmlns="http://www.w3.org/2000/svg">
<path d="M22.1881 7.81917C21.7871 6.68117 20.7031 5.90717 19.5041 5.97117C18.4551 5.99717 17.5921 6.49917 17.0631 7.35217C17.0351 7.32517 17.0081 7.30317 16.9801 7.27417C15.3141 5.57817 14.0961 3.89017 13.6501 3.24317C12.7541 1.93917 10.9601 1.60917 9.65307 2.50817C9.31607 2.74117 9.04707 3.03517 8.84507 3.36417C8.01007 2.91717 6.97607 2.88417 6.09107 3.37717C5.42007 3.74817 4.93507 4.35917 4.72407 5.09617C4.56607 5.65017 4.57707 6.22617 4.74907 6.76117C4.44607 6.83617 4.15107 6.94817 3.88107 7.12117C3.23607 7.53317 2.79007 8.17417 2.62507 8.92417C2.46507 9.65317 2.59407 10.3982 2.98107 11.0332C2.51707 11.1862 2.08807 11.4432 1.74607 11.8142C0.817071 12.8202 0.757071 14.3772 1.60307 15.5182C2.66107 16.9442 3.89307 18.2062 4.96407 19.2772C8.68707 23.0012 11.8181 23.0012 12.9981 23.0012C18.6981 23.0012 22.9971 18.9172 22.9971 13.5012C22.9971 9.88717 22.3561 8.20317 22.1861 7.82017L22.1881 7.81917ZM13.0001 21.0002C12.0481 21.0002 9.51807 21.0002 6.38007 17.8622C5.35907 16.8412 4.18807 15.6422 3.21107 14.3252C2.93707 13.9562 2.94007 13.4702 3.21707 13.1702C3.71407 12.7072 4.21807 12.8162 4.57407 13.2322C5.25807 14.0372 6.01207 14.9592 6.94107 15.9332C7.32007 16.3362 7.95307 16.3542 8.35507 15.9762C8.75707 15.5982 8.77707 14.9652 8.39807 14.5622C6.58207 12.6312 5.26907 10.9032 4.69707 10.0112C4.43707 9.62317 4.56207 9.04817 4.96107 8.80417C5.33007 8.55617 5.86607 8.65417 6.12107 9.02017C6.91307 10.1452 8.09007 11.6902 9.59007 13.2842C9.96907 13.6872 10.6021 13.7042 11.0041 13.3262C11.4061 12.9482 11.4251 12.3152 11.0461 11.9122C9.32507 10.1022 7.61607 7.77217 6.72507 6.30717C6.48907 5.90117 6.64707 5.34217 7.06407 5.12217C7.48507 4.88917 8.01707 5.04017 8.24607 5.45217C9.21807 6.99717 10.4201 8.67417 12.2681 10.6802C12.6441 11.0832 13.2761 11.1062 13.6821 10.7292C14.0851 10.3532 14.1081 9.72017 13.7311 9.31617C12.2871 7.76817 11.1711 6.23517 10.5481 5.32317C10.3091 4.93217 10.4081 4.41617 10.7901 4.15217C11.1861 3.87917 11.7311 3.97917 12.0041 4.37617C12.4801 5.06617 13.7781 6.86717 15.5541 8.67417C15.9021 9.02817 16.2551 9.32017 16.5201 9.52317C16.4121 11.1452 16.4961 12.9512 16.5001 13.0452C16.5261 13.5972 16.9991 14.0142 17.5471 13.9962C18.0991 13.9702 18.5251 13.5012 18.4981 12.9492C18.4981 12.9232 18.3761 10.3112 18.6071 8.74117C18.7701 8.22617 19.0721 7.98017 19.5531 7.96817C19.8451 7.96217 20.1991 8.17317 20.3071 8.50017C20.3751 8.71817 20.9841 9.88417 20.9971 13.4982C20.9971 17.7742 17.5591 20.9982 12.9981 20.9982L13.0001 21.0002ZM5.45907 22.2812C5.30607 22.8152 4.73407 23.1162 4.21807 22.9592C2.62607 22.4932 1.52807 21.3972 1.04207 19.7892C0.882071 19.2602 1.18207 18.7032 1.71007 18.5422C2.24007 18.3842 2.79707 18.6812 2.95707 19.2102C3.24907 20.1792 3.82907 20.7612 4.78107 21.0402C5.31107 21.1952 5.61407 21.7502 5.45907 22.2812ZM15.0431 1.71117C15.2021 1.18317 15.7591 0.88417 16.2891 1.04317C17.6931 1.46717 18.6851 2.32817 19.2381 3.60317C19.4571 4.11017 19.2241 4.69917 18.7171 4.91817C18.2221 5.13717 17.6221 4.91017 17.4021 4.39817C17.0871 3.66817 16.5481 3.21017 15.7111 2.95817C15.1831 2.79817 14.8831 2.24017 15.0431 1.71117Z" fill="#1E1E1E"/>
</svg>
