<svg width="21" height="21" viewBox="0 0 21 21" fill="none" xmlns="http://www.w3.org/2000/svg">
<path d="M20.1311 0H10.02C10.02 2.5201 12.0597 4.55981 14.5798 4.55981H16.4402V6.35976C16.4402 8.87986 18.4799 10.9196 21 10.9196V0.869785C21.0009 0.390266 20.6106 0 20.1311 0Z" fill="#808080"/>
<path d="M15.1207 5.04004H5.0105C5.0105 7.56014 7.05021 9.59985 9.57031 9.59985H11.4306V11.3998C11.4306 13.9199 13.4712 15.9596 15.9913 15.9596V5.90982C15.9905 5.4303 15.6011 5.04004 15.1207 5.04004Z" fill="#808080"/>
<path d="M10.1102 10.0806H0C0 12.6007 2.03971 14.6404 4.55981 14.6404H6.42014V16.4403C6.42014 18.9604 8.46073 21.0001 10.98 21.0001V10.9504C10.9808 10.4708 10.5906 10.0806 10.1102 10.0806Z" fill="#808080"/>
</svg>
